<svg width="902" height="91" viewBox="0 0 602 51" fill="none" xmlns="http://www.w3.org/2000/svg">
<defs>
  <mask id="mask-progress" x="0" y="0" width="5" height="26">
    <rect class="mask-progress__rect" x="48" y="7" fill="#fff" width="70%" height="26" />
  </mask>
</defs>
<rect width="602" height="51"/>
<path d="M4 2C4 0.895429 4.89543 0 6 0H29C30.1046 0 31 0.895431 31 2V38.5C31 39.6046 30.1046 40.5 29 40.5H6C4.89543 40.5 4 39.6046 4 38.5V2Z" fill="white" fill-opacity="0.7"/>
<path d="M33 38.5V2C33 0.895431 33.8954 0 35 0H599.5C600.605 0 601.5 0.89543 601.5 2V26.5C601.5 27.6046 600.605 28.5 599.5 28.5H463.5C462.395 28.5 461.5 29.3954 461.5 30.5V38.5C461.5 39.6046 460.605 40.5 459.5 40.5H35C33.8954 40.5 33 39.6046 33 38.5Z" fill="white" fill-opacity="0.7"/>
<path d="M462 48.5V31C462 29.8954 462.895 29 464 29H544.889V50.5H464C462.895 50.5 462 49.6046 462 48.5Z" fill="white" fill-opacity="0.7"/>
<path d="M545.295 50.5V29H599.5C600.605 29 601.5 29.8954 601.5 31V48.5C601.5 49.6046 600.605 50.5 599.5 50.5H545.295Z" fill="white" fill-opacity="0.7"/>
<path d="M48 30.4982V9.00176C48 7.89719 48.8954 7 50 7H584C585.105 7 586 7.89543 586 9V19.5C586 20.6046 585.105 21.5 584 21.5H435L422 32.5H50.0235C48.919 32.5 48 31.6028 48 30.4982Z" fill="#B8FFC3" stroke="black" stroke-width="0.5"/>
<path class="progress-bar" d="M48 29.9979V9.00206C48 7.89749 48.8954 7 50 7H584C585.105 7 586 7.89543 586 9V19.2157C586 20.3203 585.105 21.2157 584 21.2157H435L422 32H50.0235C48.919 32 48 31.1025 48 29.9979Z" fill="none" mask="url(#mask-progress)"/>
<rect x="0.25" y="10.25" width="20.5" height="20.5" rx="1.75" fill="white" stroke="black" stroke-width="0.5"/>
<line x1="10.5" y1="16" x2="10.5" y2="25" stroke="black"/>
<line x1="6" y1="20.5" x2="15" y2="20.5" stroke="black"/>
</svg>